<svg xmlns="http://www.w3.org/2000/svg" width="256" height="256" viewBox="0 0 100 100"><rect width="100" height="100" rx="50" fill="#438fde"></rect><path d="M48.76 37.75L48.76 37.75Q48.76 31.34 40.28 31.34L40.28 31.34Q34.97 31.34 29.52 34.56L29.52 34.56Q27.94 35.50 27.05 36.29Q26.17 37.08 25.36 37.08Q24.56 37.08 23.82 36.67Q23.07 36.27 22.49 35.66L22.49 35.66Q20.37 33.31 22.95 31.11L22.95 31.11Q26.81 27.80 35.77 26.83L35.77 26.83Q37.58 26.64 40.35 26.64Q43.12 26.64 46.20 27.63Q49.27 28.63 51.37 30.34L51.37 30.34Q55.56 33.79 55.56 39.14L55.56 39.14Q55.56 45.49 49.76 50.71L49.76 50.71Q44.73 55.28 37.87 57.25L37.87 57.25Q39.74 58.80 41.38 61.70L41.38 61.70L43.96 66.31Q47.34 72.59 50.02 73.14L50.02 73.14Q50.95 73.30 51.95 73.07Q52.95 72.85 53.25 72.86Q53.56 72.88 53.67 73.40Q53.79 73.91 53.40 74.68Q53.01 75.46 52.14 76.14L52.14 76.14Q50.11 77.75 47.70 77.57Q45.28 77.39 43.78 76.57Q42.28 75.75 41.11 74.49Q39.93 73.23 39.01 71.69Q38.09 70.14 37.32 68.53L37.32 68.53L35.87 65.37Q35.19 63.82 34.61 62.71Q34.03 61.60 33.61 60.68Q33.19 59.76 32.68 59.02L32.68 59.02Q31.58 57.35 29.87 56.90L29.87 56.90Q23.11 74.30 16.11 76.75L16.11 76.75Q15.53 76.97 14.94 76.97Q14.34 76.97 13.86 76.76Q13.37 76.55 13.05 76.23L13.05 76.23Q12.38 75.62 12.38 74.88Q12.38 74.14 12.86 73.78L12.86 73.78Q17.69 70.27 23.59 53.29L23.59 53.29L25.52 47.84Q28.84 38.43 31.13 36.24L31.13 36.24Q31.94 35.63 32.81 35.63Q33.68 35.63 34.32 35.90Q34.97 36.17 35.45 36.59L35.45 36.59Q36.55 37.56 36.55 38.56Q36.55 39.56 36.11 40.35Q35.68 41.14 35.13 42.55L35.13 42.55Q33.55 46.68 32.68 49.16L32.68 49.16L31.03 53.80Q37.90 52.90 43.18 48.42L43.18 48.42Q48.76 43.72 48.76 37.75ZM57.98 67.59L57.98 67.59Q57.98 65.73 58.25 64.02Q58.52 62.31 58.96 60.57Q59.39 58.83 59.94 57.09L59.94 57.09L63.55 46.07Q67.84 32.66 68.93 25.12L68.93 25.12Q69.29 22.41 71.58 22.41L71.58 22.41Q72.93 22.41 73.86 23.12L73.86 23.12Q75.57 24.51 75.52 26.07Q75.48 27.63 75.07 29.55Q74.67 31.47 74.04 33.72Q73.41 35.98 72.61 38.46L72.61 38.46Q70.45 44.84 69.38 47.68L69.38 47.68L67.55 52.48Q70.35 48.13 72.12 46.52L72.12 46.52Q75.67 43.39 79.50 43.39L79.50 43.39Q85.14 43.39 87.01 49.29L87.01 49.29Q87.62 51.32 87.62 54.35Q87.62 57.38 86.74 60.36Q85.85 63.34 84.34 65.90Q82.82 68.47 80.81 70.53Q78.79 72.59 76.57 74.04L76.57 74.04Q71.87 77.07 67.45 77.07L67.45 77.07Q63.00 77.07 60.46 74.36L60.46 74.36Q57.98 71.66 57.98 67.59ZM67.00 72.88L67.00 72.88Q70.03 72.88 73.15 70.17L73.15 70.17Q77.92 66.05 79.57 58.38L79.57 58.38Q80.12 55.86 80.12 53.14Q80.12 50.42 79.50 49.32Q78.89 48.23 77.62 48.23Q76.35 48.23 74.96 49.26Q73.57 50.29 72.06 51.98Q70.54 53.67 69.06 55.88Q67.58 58.09 66.39 60.44L66.39 60.44Q63.78 65.63 63.78 69.25Q63.78 72.88 67.00 72.88Z" fill="#fff"></path></svg>