<svg width="23" height="20" fill="none" xmlns="http://www.w3.org/2000/svg"><path d="M22.25 4.469a5.451 5.451 0 0 0-.578-1.407 5.063 5.063 0 0 0-.938-1.234 5.906 5.906 0 0 0-1.89-1.266 5.844 5.844 0 0 0-4.438 0 6.25 6.25 0 0 0-1.812 1.172l-.078.094L11.5 2.844l-1.016-1.016-.078-.094A6.25 6.25 0 0 0 8.594.562a5.844 5.844 0 0 0-4.438 0 5.906 5.906 0 0 0-1.89 1.266A5.547 5.547 0 0 0 .75 4.468a5.86 5.86 0 0 0-.188 1.563c0 .496.063.99.188 1.469.13.484.32.951.562 1.39.263.452.583.867.954 1.235l9.234 9.234 9.234-9.234c.37-.364.688-.781.938-1.234a5.59 5.59 0 0 0 .765-2.86 5.856 5.856 0 0 0-.187-1.562Zm-1.563 2.547a4.203 4.203 0 0 1-1.078 1.89l-8.14 8.125-8.14-8.125a4.53 4.53 0 0 1-.688-.89A4.688 4.688 0 0 1 2.219 7a5.078 5.078 0 0 1-.125-1.078 5.25 5.25 0 0 1 .125-1.11c.097-.354.239-.696.422-1.015.187-.328.418-.625.687-.89a4.547 4.547 0 0 1 1.39-.938 4.375 4.375 0 0 1 3.25 0c.516.214.982.528 1.376.922l2.125 2.14 2.125-2.14a4.25 4.25 0 0 1 1.375-.922 4.375 4.375 0 0 1 3.25 0c.517.223.989.542 1.39.937.272.258.5.558.672.89.362.64.55 1.36.547 2.095.021.377-.01.756-.094 1.125h-.047Z" fill="#574AE8"/></svg>